<svg width="40" height="40" viewBox="0 0 40 40" fill="none" xmlns="http://www.w3.org/2000/svg">
<path d="M23.3334 3.33325H10C9.11597 3.33325 8.26812 3.68444 7.643 4.30956C7.01788 4.93468 6.66669 5.78253 6.66669 6.66659V33.3333C6.66669 34.2173 7.01788 35.0652 7.643 35.6903C8.26812 36.3154 9.11597 36.6666 10 36.6666H30C30.8841 36.6666 31.7319 36.3154 32.357 35.6903C32.9822 35.0652 33.3334 34.2173 33.3334 33.3333V13.3333L23.3334 3.33325Z" stroke="white" stroke-width="2" stroke-linecap="round" stroke-linejoin="round"/>
<path d="M23.3333 3.33325V13.3333H33.3333" stroke="white" stroke-width="2" stroke-linecap="round" stroke-linejoin="round"/>
<path d="M26.6666 21.6667H13.3333" stroke="white" stroke-width="2" stroke-linecap="round" stroke-linejoin="round"/>
<path d="M26.6666 28.3333H13.3333" stroke="white" stroke-width="2" stroke-linecap="round" stroke-linejoin="round"/>
<path d="M16.6666 15H15H13.3333" stroke="white" stroke-width="2" stroke-linecap="round" stroke-linejoin="round"/>
</svg>
