<svg width="40" height="40" viewBox="0 0 40 40" fill="none" xmlns="http://www.w3.org/2000/svg">
<path d="M5 30V20C5 16.0218 6.58035 12.2064 9.3934 9.3934C12.2064 6.58035 16.0218 5 20 5C23.9782 5 27.7936 6.58035 30.6066 9.3934C33.4196 12.2064 35 16.0218 35 20V30" stroke="#0BB926" stroke-width="2" stroke-linecap="round" stroke-linejoin="round"/>
<path d="M35 31.6666C35 32.5506 34.6488 33.3985 34.0237 34.0236C33.3986 34.6487 32.5507 34.9999 31.6667 34.9999H30C29.1159 34.9999 28.2681 34.6487 27.643 34.0236C27.0179 33.3985 26.6667 32.5506 26.6667 31.6666V26.6666C26.6667 25.7825 27.0179 24.9347 27.643 24.3096C28.2681 23.6844 29.1159 23.3333 30 23.3333H35V31.6666ZM5 31.6666C5 32.5506 5.35119 33.3985 5.97631 34.0236C6.60143 34.6487 7.44928 34.9999 8.33333 34.9999H10C10.8841 34.9999 11.7319 34.6487 12.357 34.0236C12.9821 33.3985 13.3333 32.5506 13.3333 31.6666V26.6666C13.3333 25.7825 12.9821 24.9347 12.357 24.3096C11.7319 23.6844 10.8841 23.3333 10 23.3333H5V31.6666Z" stroke="#0BB926" stroke-width="2" stroke-linecap="round" stroke-linejoin="round"/>
</svg>
